<svg width="18.000000" height="18.000000" viewBox="0 0 18 18" fill="none" xmlns="http://www.w3.org/2000/svg" xmlns:xlink="http://www.w3.org/1999/xlink">
	<desc>
			Created with Pixso.
	</desc>
	<defs/>
	<path id="Vector" d="M9 0C4.12 0 0 4.12 0 9C0 11.87 1.43 14.47 3.59 16.13L3.59 16.2L3.69 16.2C5.19 17.32 7.03 18 9 18C10.96 18 12.8 17.32 14.3 16.2L14.4 16.2L14.4 16.13C16.56 14.47 18 11.87 18 9C18 4.12 13.87 0 9 0ZM5.46 15.23C5.59 14.63 5.93 14.09 6.41 13.71C6.88 13.32 7.48 13.11 8.09 13.11L9.9 13.11C10.51 13.11 11.11 13.32 11.58 13.71C12.06 14.09 12.4 14.63 12.53 15.23C11.48 15.84 10.27 16.2 9 16.2C7.72 16.2 6.51 15.84 5.46 15.23ZM14.04 14.07C13.7 13.25 13.12 12.56 12.39 12.07C11.65 11.57 10.78 11.31 9.9 11.31L8.09 11.31C7.21 11.31 6.34 11.57 5.6 12.07C4.87 12.56 4.29 13.25 3.95 14.07C2.63 12.76 1.79 10.95 1.79 9C1.79 5.09 5.09 1.8 9 1.8C12.9 1.8 16.2 5.09 16.2 9C16.2 10.95 15.36 12.76 14.04 14.07Z" fill="#000000" fill-opacity="1.000000" fill-rule="nonzero"/>
</svg>
